<svg width="18" height="18" viewBox="0 0 18 18" fill="none" xmlns="http://www.w3.org/2000/svg">
<g id="Group 1000003931">
<path id="Vector" d="M15.5404 2.15965L10.4804 2.15965C10.2004 2.15965 9.98036 2.37965 9.98036 2.65965C9.98036 2.93965 10.2004 3.15965 10.4804 3.15965L15.5404 3.15965C16.3504 3.15965 17.0004 3.81965 17.0004 4.61965V11.6596C17.0004 12.4896 16.3304 13.1596 15.5004 13.1596H10.7104L11.8704 12.0496C12.0704 11.8596 12.0804 11.5396 11.8904 11.3396C11.7004 11.1396 11.3804 11.1296 11.1804 11.3196L9.12036 13.2896C9.06036 13.3496 9.02036 13.4296 9.00036 13.5096C9.00036 13.5296 9.00036 13.5496 8.99036 13.5696C8.98036 13.6596 8.98036 13.7396 9.01036 13.8296C9.03036 13.8896 9.07036 13.9496 9.12036 13.9996L11.1404 16.0196C11.2404 16.1196 11.3704 16.1696 11.4904 16.1696C11.6104 16.1696 11.7504 16.1196 11.8404 16.0196C12.0404 15.8196 12.0404 15.5096 11.8404 15.3096L10.6704 14.1396H15.5004C16.8804 14.1396 18.0004 13.0196 18.0004 11.6396V4.59965C18.0004 3.23965 16.9004 2.13965 15.5404 2.13965V2.15965Z" fill="#F43E63"/>
<path id="Vector_2" d="M7.57 13.16C7.06 13.16 6.56 13.31 6.14 13.61L1.85 16.6C1.63 16.82 1.38 16.74 1.31 16.71C1.24 16.68 1 16.56 1 16.25L1 4.62C1 3.81 1.66 3.16 2.46 3.16L7.29 3.16L6.14 4.31C5.94 4.51 5.94 4.82 6.14 5.02C6.24 5.12 6.37 5.17 6.49 5.17C6.61 5.17 6.75 5.12 6.84 5.02L8.84 3.02C8.84 3.02 8.92 2.92 8.94 2.86C8.97 2.78 8.98 2.69 8.97 2.6C8.97 2.58 8.97 2.56 8.96 2.54C8.94 2.46 8.9 2.38 8.84 2.31L6.95 0.4C6.75 0.2 6.44 0.2 6.24 0.4C6.04 0.6 6.04 0.91 6.24 1.11L7.29 2.16L2.46 2.16C1.1 2.16 0 3.26 0 4.62L0 16.24C0 16.86 0.35 17.39 0.93 17.63C1.13 17.71 1.33 17.75 1.53 17.75C1.91 17.75 2.26 17.61 2.5 17.36L6.72 14.42C6.97 14.24 7.27 14.15 7.58 14.15C7.86 14.15 8.08 13.93 8.08 13.65C8.08 13.37 7.86 13.15 7.58 13.15L7.57 13.16Z" fill="#F43E63"/>
<path id="Vector_3" d="M14.96 7.16016C14.96 6.88016 14.74 6.66016 14.46 6.66016L3.5 6.66016C3.22 6.66016 3 6.88016 3 7.16016C3 7.44016 3.22 7.66016 3.5 7.66016L14.46 7.66016C14.74 7.66016 14.96 7.44016 14.96 7.16016Z" fill="#F43E63"/>
<path id="Vector_4" d="M3.5 8.66016C3.22 8.66016 3 8.88016 3 9.16016C3 9.44016 3.22 9.66016 3.5 9.66016L12.5 9.66016C12.78 9.66016 13 9.44016 13 9.16016C13 8.88016 12.78 8.66016 12.5 8.66016L3.5 8.66016Z" fill="#F43E63"/>
</g>
</svg>
