<svg width="27" height="27" viewBox="0 0 27 27" fill="none" xmlns="http://www.w3.org/2000/svg">
<g id="Layer_1" clip-path="url(#clip0_3296_15125)">
    <g id="Group">
        <path id="Vector" d="M6.26998 13.9274C3.55998 13.9274 1.34998 11.7174 1.34998 9.00741C1.34998 6.29741 3.55998 4.09741 6.26998 4.09741C8.97998 4.09741 11.19 6.30741 11.19 9.01741C11.19 11.7274 8.97998 13.9374 6.26998 13.9374V13.9274ZM6.26998 5.09741C4.10998 5.09741 2.34998 6.85741 2.34998 9.01741C2.34998 11.1774 4.10998 12.9374 6.26998 12.9374C8.42998 12.9374 10.19 11.1774 10.19 9.01741C10.19 6.85741 8.42998 5.09741 6.26998 5.09741Z" fill="white"/>
        <path id="Vector_2" d="M8.53 26.8774H2.5C1.13 26.8774 0 25.7574 0 24.3874V21.9874C0 18.4674 2.86 15.5974 6.38 15.5974C9.9 15.5974 12.77 18.4574 12.77 21.9874V22.7274C12.77 23.0074 12.55 23.2274 12.27 23.2274C11.99 23.2274 11.77 23.0074 11.77 22.7274V21.9874C11.77 19.0174 9.35 16.5974 6.38 16.5974C3.41 16.5974 0.99 19.0174 0.99 21.9874V24.3874C0.99 25.2174 1.67 25.8874 2.49 25.8874H8.51C9.23 25.8874 9.93 25.6674 10.52 25.2574L11.98 24.2374C12.21 24.0774 12.52 24.1374 12.68 24.3574C12.84 24.5874 12.78 24.8974 12.56 25.0574L11.1 26.0774C10.34 26.6074 9.45 26.8874 8.52 26.8874L8.53 26.8774Z" fill="white"/>
    </g>
    <path id="Vector_3" d="M13.38 11.7574C13.3 11.7574 13.22 11.7374 13.15 11.6974C12.99 11.6074 12.88 11.4374 12.88 11.2574V3.37744C12.88 1.99744 14 0.877441 15.38 0.877441H23.51C24.89 0.877441 26.01 1.99744 26.01 3.37744V6.73744C26.01 8.11744 24.89 9.23744 23.51 9.23744H17.63C17.36 9.23744 17.09 9.31744 16.87 9.46744L13.66 11.6674C13.58 11.7274 13.48 11.7574 13.38 11.7574ZM15.38 1.87744C14.55 1.87744 13.88 2.54744 13.88 3.37744V10.3074L16.3 8.64744C16.69 8.37744 17.15 8.23744 17.63 8.23744H23.51C24.34 8.23744 25.01 7.56744 25.01 6.73744V3.37744C25.01 2.54744 24.34 1.87744 23.51 1.87744H15.38Z" fill="white"/>
    <g id="Group_2">
        <path id="Vector_4" d="M17.95 5.37744H15.95C15.67 5.37744 15.45 5.15744 15.45 4.87744C15.45 4.59744 15.67 4.37744 15.95 4.37744H17.95C18.23 4.37744 18.45 4.59744 18.45 4.87744C18.45 5.15744 18.23 5.37744 17.95 5.37744Z" fill="white"/>
        <path id="Vector_5" d="M22.95 5.37744H20.95C20.67 5.37744 20.45 5.15744 20.45 4.87744C20.45 4.59744 20.67 4.37744 20.95 4.37744H22.95C23.23 4.37744 23.45 4.59744 23.45 4.87744C23.45 5.15744 23.23 5.37744 22.95 5.37744Z" fill="white"/>
    </g>
</g>
<defs>
    <clipPath id="clip0_3296_15125">
        <rect width="26.02" height="26" fill="white" transform="translate(0 0.877441)"/>
    </clipPath>
</defs>
</svg>